<svg height="512" viewBox="0 0 64 64" width="512" xmlns="http://www.w3.org/2000/svg"><g id="Filled_outline" data-name="Filled outline"><rect fill="#394d5c" height="4" rx="2" width="58" x="3" y="49"/><path d="m7 45h50v4h-50z" fill="#aabece"/><path d="m29 20h6a18 18 0 0 1 18 18v3a0 0 0 0 1 0 0h-42a0 0 0 0 1 0 0v-3a18 18 0 0 1 18-18z" fill="#f9bb4b"/><path d="m30 16h4v4h-4z" fill="#d19637"/><path d="m30 41h4v4h-4z" fill="#d19637"/><path d="m27 12h10v4h-10z" fill="#f9bb4b"/><path d="m22 38h-7a1 1 0 0 1 -.988-1.152c2.106-13.69 14.859-13.848 14.988-13.848v2a13.362 13.362 0 0 0 -12.8 11h5.8z" fill="#f4f4e6"/><path d="m24 36h2v2h-2z" fill="#f4f4e6"/><path d="m49.99 38.142-1.98-.284.99.142-.99-.138c.035-.262.8-6.485-5.591-11.048l1.162-1.628c7.41 5.293 6.453 12.645 6.409 12.956z" fill="#f4f4e6"/><g fill="#cfdfe8"><path d="m9.97 29.243-1.94-.486c2.1-8.412 10.272-11.563 10.618-11.694l.705 1.873c-.076.028-7.539 2.931-9.383 10.307z"/><path d="m7.929 24.372-1.858-.744a14.912 14.912 0 0 1 6.482-7.523l.894 1.79-.447-.895.45.893a13.124 13.124 0 0 0 -5.521 6.479z"/><path d="m54.03 29.243c-1.851-7.406-9.306-10.279-9.382-10.306l.7-1.874c.346.131 8.515 3.282 10.618 11.694z"/><path d="m56.071 24.372a12.981 12.981 0 0 0 -5.518-6.472l.894-1.79a14.912 14.912 0 0 1 6.482 7.523z"/></g><path d="m59 48h-1v-3a1 1 0 0 0 -1-1h-22v-2h18a1 1 0 0 0 1-1v-3a19.021 19.021 0 0 0 -19-19v-2h2a1 1 0 0 0 1-1v-4a1 1 0 0 0 -1-1h-10a1 1 0 0 0 -1 1v4a1 1 0 0 0 1 1h2v2a19.021 19.021 0 0 0 -19 19v3a1 1 0 0 0 1 1h18v2h-22a1 1 0 0 0 -1 1v3h-1a3 3 0 0 0 0 6h54a3 3 0 0 0 0-6zm-31-33v-2h8v2zm5 2v2h-2v-2zm-21 23v-2a17.019 17.019 0 0 1 17-17h6a17.019 17.019 0 0 1 17 17v2zm21 2v2h-2v-2zm-25 4h48v2h-48zm51 6h-54a1 1 0 0 1 0-2h54a1 1 0 0 1 0 2z"/><path d="m14.012 36.848a1 1 0 0 0 .988 1.152h7v-2h-5.8a13.362 13.362 0 0 1 12.8-11v-2c-.129 0-12.882.158-14.988 13.848z"/><path d="m24 36h2v2h-2z"/><path d="m48.01 37.862.99.138.99.142c.044-.311 1-7.663-6.409-12.956l-1.162 1.628c6.39 4.563 5.626 10.786 5.591 11.048z"/><path d="m9.97 29.243c1.844-7.376 9.307-10.279 9.383-10.307l-.705-1.873c-.346.131-8.515 3.282-10.618 11.694z"/><path d="m12.553 16.105a14.912 14.912 0 0 0 -6.482 7.523l1.858.744a13.124 13.124 0 0 1 5.521-6.479l-.45-.893z"/><path d="m44.648 18.937c.076.027 7.531 2.9 9.382 10.306l1.94-.486c-2.1-8.412-10.272-11.563-10.618-11.694z"/><path d="m56.071 24.372 1.858-.744a14.912 14.912 0 0 0 -6.482-7.523l-.894 1.79a12.981 12.981 0 0 1 5.518 6.477z"/></g></svg>