<svg id="Layer_2" enable-background="new 0 0 64 64" height="512" viewBox="0 0 64 64" width="512" xmlns="http://www.w3.org/2000/svg"><path d="m42.584 54.191c0 1.1-.9 2-2 2h-29.5c-1.1 0-2-.9-2-2v-41.25c0-1.1.9-2 2-2h29.5c1.1 0 2 .9 2 2z" fill="#efc36a"/><path d="m40.584 56.691h-29.5c-1.379 0-2.5-1.122-2.5-2.5v-41.25c0-1.378 1.121-2.5 2.5-2.5h29.5c1.379 0 2.5 1.122 2.5 2.5v41.25c0 1.379-1.121 2.5-2.5 2.5zm-29.5-45.25c-.827 0-1.5.673-1.5 1.5v41.25c0 .827.673 1.5 1.5 1.5h29.5c.827 0 1.5-.673 1.5-1.5v-41.25c0-.827-.673-1.5-1.5-1.5z" fill="#63312d"/><path d="m36.584 54.191c0 1.1-.9 2-2 2h-29.5c-1.1 0-2-.9-2-2v-41.25c0-1.1.9-2 2-2h29.5c1.1 0 2 .9 2 2z" fill="#f9dd9d"/><path d="m7.084 12.941h29.5c0-1.1-.9-2-2-2h-29.5c-1.1 0-2 .9-2 2v41.25c0 1.1.9 2 2 2v-41.25c0-1.1.9-2 2-2z" fill="#ffeecf"/><path d="m34.584 56.691h-29.5c-1.379 0-2.5-1.122-2.5-2.5v-41.25c0-1.378 1.121-2.5 2.5-2.5h29.5c1.379 0 2.5 1.122 2.5 2.5v41.25c0 1.379-1.121 2.5-2.5 2.5zm-29.5-45.25c-.827 0-1.5.673-1.5 1.5v41.25c0 .827.673 1.5 1.5 1.5h29.5c.827 0 1.5-.673 1.5-1.5v-41.25c0-.827-.673-1.5-1.5-1.5z" fill="#63312d"/><path d="m10.935 10.941h17.799v4.917h-17.799z" fill="#f9a287"/><path d="m10.935 10.941h17.799v2h-17.799z" fill="#ffc8bb"/><path d="m28.733 16.358h-17.798c-.276 0-.5-.224-.5-.5v-4.917c0-.276.224-.5.5-.5h17.799c.276 0 .5.224.5.5v4.917c-.001.277-.224.5-.501.5zm-17.298-1h16.799v-3.917h-16.799z" fill="#63312d"/><path d="m31.834 50.274c0 1.1-.9 2-2 2h-1.834c-1.1 0-2-.9-2-2v-27.916c0-1.1.9-2 2-2h1.834c1.1 0 2 .9 2 2z" fill="#f9a287"/><path d="m22.75 50.274c0 1.1-.899 2-2 2h-1.832c-1.101 0-2-.9-2-2v-27.916c0-1.1.899-2 2-2h1.832c1.101 0 2 .9 2 2z" fill="#f9a287"/><path d="m14.935 10.949v-4.765c0-.551.448-1 1-1h11.798c.552 0 1 .449 1 1v4.766h2v-4.766c0-1.654-1.346-3-3-3h-11.798c-1.654 0-3 1.346-3 3v4.766h2z" fill="#d1d1d1"/><path d="m30.733 11.449h-2c-.276 0-.5-.224-.5-.5v-4.765c0-.276-.225-.5-.5-.5h-11.797c-.275 0-.5.224-.5.5v4.766c0 .276-.224.5-.5.5h-2c-.276 0-.5-.224-.5-.5v-4.766c0-1.93 1.57-3.5 3.5-3.5h11.798c1.93 0 3.5 1.57 3.5 3.5v4.766c-.001.276-.224.499-.501.499zm-1.5-1h1v-4.265c0-1.378-1.121-2.5-2.5-2.5h-11.797c-1.379 0-2.5 1.122-2.5 2.5v4.266h1v-4.266c0-.827.673-1.5 1.5-1.5h11.798c.827 0 1.5.673 1.5 1.5v4.265z" fill="#63312d"/><path d="m12.935 10.949v-4.765c0-.551.448-1 1-1h11.798c.552 0 1 .449 1 1v4.766h2v-4.766c0-1.654-1.346-3-3-3h-11.798c-1.654 0-3 1.346-3 3v4.766h2z" fill="#f8f3f3"/><path d="m28.733 11.449h-2c-.276 0-.5-.224-.5-.5v-4.765c0-.276-.225-.5-.5-.5h-11.797c-.275 0-.5.224-.5.5v4.766c0 .276-.224.5-.5.5h-2c-.276 0-.5-.224-.5-.5v-4.766c0-1.93 1.57-3.5 3.5-3.5h11.798c1.93 0 3.5 1.57 3.5 3.5v4.766c-.001.276-.224.499-.501.499zm-1.5-1h1v-4.265c0-1.378-1.121-2.5-2.5-2.5h-11.797c-1.379 0-2.5 1.122-2.5 2.5v4.266h1v-4.266c0-.827.673-1.5 1.5-1.5h11.798c.827 0 1.5.673 1.5 1.5v4.265z" fill="#63312d"/><path d="m13.668 50.274c0 1.1-.9 2-2 2h-1.834c-1.1 0-2-.9-2-2v-27.916c0-1.1.9-2 2-2h1.834c1.1 0 2 .9 2 2z" fill="#f9a287"/><path d="m9.834 50.274v-27.916c0-1.072.855-1.946 1.917-1.992-.028-.001-.055-.008-.083-.008h-1.834c-1.1 0-2 .9-2 2v27.916c0 1.1.9 2 2 2h1.834c.028 0 .055-.007.083-.008-1.062-.045-1.917-.92-1.917-1.992z" fill="#ffc8bb"/><path d="m18.918 50.274v-27.916c0-1.072.855-1.946 1.916-1.992-.028-.001-.055-.008-.084-.008h-1.832c-1.101 0-2 .9-2 2v27.916c0 1.1.899 2 2 2h1.832c.029 0 .056-.007.084-.008-1.061-.045-1.916-.92-1.916-1.992z" fill="#ffc8bb"/><path d="m28 50.274v-27.916c0-1.072.855-1.946 1.917-1.992-.028-.001-.055-.008-.083-.008h-1.834c-1.1 0-2 .9-2 2v27.916c0 1.1.9 2 2 2h1.834c.028 0 .055-.007.083-.008-1.062-.045-1.917-.92-1.917-1.992z" fill="#ffc8bb"/><g fill="#63312d"><path d="m29.834 52.774h-1.834c-1.379 0-2.5-1.122-2.5-2.5v-27.916c0-1.378 1.121-2.5 2.5-2.5h1.834c1.379 0 2.5 1.122 2.5 2.5v27.916c0 1.379-1.121 2.5-2.5 2.5zm-1.834-31.916c-.827 0-1.5.673-1.5 1.5v27.916c0 .827.673 1.5 1.5 1.5h1.834c.827 0 1.5-.673 1.5-1.5v-27.916c0-.827-.673-1.5-1.5-1.5z"/><path d="m20.75 52.774h-1.832c-1.379 0-2.5-1.122-2.5-2.5v-27.916c0-1.378 1.121-2.5 2.5-2.5h1.832c1.379 0 2.5 1.122 2.5 2.5v27.916c0 1.379-1.121 2.5-2.5 2.5zm-1.832-31.916c-.827 0-1.5.673-1.5 1.5v27.916c0 .827.673 1.5 1.5 1.5h1.832c.827 0 1.5-.673 1.5-1.5v-27.916c0-.827-.673-1.5-1.5-1.5z"/><path d="m11.668 52.774h-1.834c-1.379 0-2.5-1.122-2.5-2.5v-27.916c0-1.378 1.121-2.5 2.5-2.5h1.834c1.379 0 2.5 1.122 2.5 2.5v27.916c0 1.379-1.121 2.5-2.5 2.5zm-1.834-31.916c-.827 0-1.5.673-1.5 1.5v27.916c0 .827.673 1.5 1.5 1.5h1.834c.827 0 1.5-.673 1.5-1.5v-27.916c0-.827-.673-1.5-1.5-1.5z"/></g><circle cx="8.185" cy="58.504" fill="#f8f3f3" r="2.312"/><circle cx="30.533" cy="58.504" fill="#f8f3f3" r="2.313"/><path d="m8.186 61.316c-1.551 0-2.813-1.262-2.813-2.813s1.262-2.813 2.813-2.813 2.813 1.262 2.813 2.813-1.263 2.813-2.813 2.813zm0-4.625c-.999 0-1.813.813-1.813 1.813s.813 1.813 1.813 1.813 1.813-.813 1.813-1.813-.814-1.813-1.813-1.813z" fill="#63312d"/><path d="m30.533 61.316c-1.551 0-2.813-1.262-2.813-2.813s1.262-2.813 2.813-2.813 2.813 1.262 2.813 2.813-1.262 2.813-2.813 2.813zm0-4.625c-.999 0-1.813.813-1.813 1.813s.813 1.813 1.813 1.813 1.813-.813 1.813-1.813-.814-1.813-1.813-1.813z" fill="#63312d"/><circle cx="15.135" cy="58.504" fill="#d1d1d1" r="2.313"/><circle cx="37.482" cy="58.504" fill="#d1d1d1" r="2.313"/><path d="m15.135 61.316c-1.551 0-2.813-1.262-2.813-2.813s1.262-2.813 2.813-2.813 2.813 1.262 2.813 2.813-1.262 2.813-2.813 2.813zm0-4.625c-.999 0-1.813.813-1.813 1.813s.813 1.813 1.813 1.813 1.813-.813 1.813-1.813-.814-1.813-1.813-1.813z" fill="#63312d"/><path d="m37.482 61.316c-1.551 0-2.813-1.262-2.813-2.813s1.262-2.813 2.813-2.813 2.813 1.262 2.813 2.813-1.262 2.813-2.813 2.813zm0-4.625c-.999 0-1.813.813-1.813 1.813s.813 1.813 1.813 1.813 1.813-.813 1.813-1.813-.814-1.813-1.813-1.813z" fill="#63312d"/><path d="m36.127 8.434-2-2.625 2-2.625h6.457v5.25z" fill="#84dbff"/><path d="m38.127 3.184h-2l-2 2.625 2 2.625h2l-2-2.625z" fill="#caf4ff"/><path d="m42.584 8.934h-6.457c-.156 0-.303-.073-.397-.197l-2-2.625c-.137-.179-.137-.427 0-.606l2-2.625c.095-.124.241-.197.397-.197h6.457c.276 0 .5.224.5.5v5.25c0 .276-.224.5-.5.5zm-6.209-1h5.709v-4.25h-5.709l-1.619 2.125z" fill="#63312d"/><path d="m30.733 8.494h-4v-1h3.853l3.271-2.105.541.841-3.394 2.185c-.08.051-.175.079-.271.079z" fill="#63312d"/><path d="m52.945 42.568h-2v-3.923c0-3.76-3.059-6.819-6.818-6.819-3.76 0-6.818 3.059-6.818 6.819v3.923h-2v-3.923c0-4.863 3.957-8.819 8.818-8.819 4.863 0 8.818 3.956 8.818 8.819z" fill="#f8f3f3"/><path d="m52.945 43.068h-2c-.276 0-.5-.224-.5-.5v-3.923c0-3.484-2.834-6.319-6.318-6.319s-6.318 2.834-6.318 6.319v3.923c0 .276-.224.5-.5.5h-2c-.276 0-.5-.224-.5-.5v-3.923c0-5.139 4.181-9.319 9.318-9.319s9.318 4.18 9.318 9.319v3.923c0 .277-.223.5-.5.5zm-1.5-1h1v-3.423c0-4.587-3.731-8.319-8.318-8.319s-8.318 3.732-8.318 8.319v3.423h1v-3.423c0-4.036 3.283-7.319 7.318-7.319s7.318 3.283 7.318 7.319z" fill="#63312d"/><path d="m57.394 41.776c-.219-1.078-1.299-1.96-2.398-1.96h-21.736c-1.101 0-2.18.882-2.4 1.96l-3.478 17.08c-.219 1.078.501 1.96 1.601 1.96h30.291c1.1 0 1.82-.882 1.6-1.96z" fill="#db785a"/><path d="m59.273 61.316h-30.291c-.685 0-1.282-.27-1.683-.759-.399-.49-.545-1.129-.409-1.801l3.479-17.08c.267-1.302 1.563-2.36 2.891-2.36h21.736c1.328 0 2.624 1.059 2.889 2.36l3.479 17.08c.137.67-.008 1.31-.407 1.8-.401.49-.998.76-1.684.76zm-26.013-21c-.862 0-1.737.714-1.91 1.56l-3.479 17.08c-.076.372-.003.716.203.969.207.252.529.392.908.392h30.291c.379 0 .701-.139.908-.392.206-.253.277-.596.201-.968l-3.479-17.081c-.171-.846-1.045-1.56-1.908-1.56z" fill="#63312d"/><path d="m51.394 41.776c-.219-1.078-1.299-1.96-2.398-1.96h-21.736c-1.101 0-2.18.882-2.4 1.96l-3.478 17.08c-.219 1.078.501 1.96 1.601 1.96h30.291c1.1 0 1.82-.882 1.6-1.96z" fill="#f9a287"/><path d="m26.859 43.776c.221-1.078 1.3-1.96 2.4-1.96h21.736c.139 0 .278.015.416.042l-.018-.081c-.219-1.078-1.299-1.96-2.398-1.96h-21.735c-1.101 0-2.18.882-2.4 1.96l-3.478 17.08c-.219 1.078.501 1.96 1.601 1.96h.407z" fill="#ffc8bb"/><path d="m53.273 61.316h-30.291c-.685 0-1.282-.27-1.683-.759-.399-.49-.545-1.129-.409-1.801l3.479-17.08c.267-1.302 1.563-2.36 2.891-2.36h21.736c1.328 0 2.624 1.059 2.889 2.36l3.479 17.08c.137.67-.008 1.31-.407 1.8-.401.49-.998.76-1.684.76zm-26.013-21c-.862 0-1.737.714-1.91 1.56l-3.479 17.08c-.076.372-.003.716.203.969.207.252.529.392.908.392h30.291c.379 0 .701-.139.908-.392.206-.253.277-.596.201-.968l-3.479-17.081c-.171-.846-1.045-1.56-1.908-1.56z" fill="#63312d"/><path d="m47.809 54.895c0 1.1-.9 2-2 2h-15.363c-1.101 0-2-.9-2-2v-.368c0-1.1.899-2 2-2h15.362c1.1 0 2 .9 2 2v.368z" fill="#f9dd9d"/><path d="m32.446 54.527h15.362c0-1.1-.9-2-2-2h-15.362c-1.101 0-2 .9-2 2v.368c0 1.1.899 2 2 2v-.368c0-1.1.9-2 2-2z" fill="#ffeecf"/><path d="m45.809 57.395h-15.363c-1.379 0-2.5-1.122-2.5-2.5v-.368c0-1.378 1.121-2.5 2.5-2.5h15.362c1.379 0 2.5 1.122 2.5 2.5v.368c.001 1.378-1.12 2.5-2.499 2.5zm-15.363-4.368c-.827 0-1.5.673-1.5 1.5v.368c0 .827.673 1.5 1.5 1.5h15.362c.827 0 1.5-.673 1.5-1.5v-.368c0-.827-.673-1.5-1.5-1.5z" fill="#63312d"/><path d="m46.945 42.568h-2v-3.923c0-3.76-3.059-6.819-6.818-6.819-3.76 0-6.818 3.059-6.818 6.819v3.923h-2v-3.923c0-4.863 3.957-8.819 8.818-8.819 4.863 0 8.818 3.956 8.818 8.819z" fill="#f8f3f3"/><path d="m46.945 43.068h-2c-.276 0-.5-.224-.5-.5v-3.923c0-3.484-2.834-6.319-6.318-6.319s-6.318 2.834-6.318 6.319v3.923c0 .276-.224.5-.5.5h-2c-.276 0-.5-.224-.5-.5v-3.923c0-5.139 4.181-9.319 9.318-9.319s9.318 4.18 9.318 9.319v3.923c0 .277-.223.5-.5.5zm-1.5-1h1v-3.423c0-4.587-3.731-8.319-8.318-8.319s-8.318 3.732-8.318 8.319v3.423h1v-3.423c0-4.036 3.283-7.319 7.318-7.319s7.318 3.283 7.318 7.319z" fill="#63312d"/><path d="m44.038 42.568h3.771v.839c0 1.04-.846 1.885-1.885 1.885-1.04 0-1.886-.846-1.886-1.885z" fill="#84dbff"/><path d="m28.43 42.568h3.769v.839c0 1.04-.845 1.885-1.885 1.885-1.039 0-1.885-.846-1.885-1.885v-.839z" fill="#84dbff"/><path d="m45.924 45.792c-1.315 0-2.386-1.07-2.386-2.385v-.839c0-.276.224-.5.5-.5h3.771c.276 0 .5.224.5.5v.839c0 1.316-1.07 2.385-2.385 2.385zm-1.386-2.724v.339c0 .764.622 1.385 1.386 1.385s1.385-.622 1.385-1.385v-.339z" fill="#63312d"/><path d="m30.314 45.792c-1.315 0-2.385-1.07-2.385-2.385v-.839c0-.276.224-.5.5-.5h3.77c.276 0 .5.224.5.5v.839c0 1.316-1.069 2.385-2.385 2.385zm-1.384-2.724v.339c0 .764.621 1.385 1.385 1.385s1.385-.622 1.385-1.385v-.339z" fill="#63312d"/></svg>